<svg xmlns="http://www.w3.org/2000/svg" version="1.1" xmlns:xlink="http://www.w3.org/1999/xlink" width="908" height="971"><svg version="1.1" width="908" height="971" id="SvgjsSvg1013" sodipodi:docname="favicon.svg" inkscape:version="1.4.2 (f4327f4, 2025-05-13)" xmlns:inkscape="http://www.inkscape.org/namespaces/inkscape" xmlns:sodipodi="http://sodipodi.sourceforge.net/DTD/sodipodi-0.dtd" xmlns="http://www.w3.org/2000/svg" xmlns:svg="http://www.w3.org/2000/svg">
  <defs id="SvgjsDefs1012"></defs>
  <svg version="1.1" width="908" height="971" id="SvgjsSvg1011" sodipodi:docname="pound sign.svg" inkscape:version="1.4.2 (f4327f4, 2025-05-13)">
    <defs id="SvgjsDefs1010"></defs>
    <sodipodi:namedview id="SvgjsSodipodi:namedview1009" pagecolor="#ffffff" bordercolor="#000000" borderopacity="0.25" inkscape:showpageshadow="2" inkscape:pageopacity="0.0" inkscape:pagecheckerboard="0" inkscape:deskcolor="#d1d1d1" inkscape:zoom="0.82507928" inkscape:cx="-52.116204" inkscape:cy="513.28401" inkscape:window-width="2560" inkscape:window-height="1351" inkscape:window-x="-9" inkscape:window-y="-9" inkscape:window-maximized="1" inkscape:current-layer="SvgjsSvg1007"></sodipodi:namedview>
    <path d="M 0,0 C 7.5443859,1.4667319 15.080759,2.9742295 22.618408,4.4750977 25,5 25,5 28,6 v 137 h -64 l -8,-23 C -53.616465,97.262344 -59.611189,88.734943 -67.323242,79.397949 -84.942978,58.346868 -110.78911,47.54671 -137.75732,44.709961 -144.26345,44.10943 -176.48928,41.534156 -199,46.999996 c -12.50639,2.914814 -51.35708,12.279223 -79.41406,57.851564 -12.24841,20.62875 -17.17377,38.98635 -20.31201,50.90625 -12.83103,49.59285 -11.64738,101.09398 -11.8989,151.92969 L -311,374 h 261 v 74 h -262 c 0,154.44539 -6.92919,248.47957 -57.93085,313.36298 46.41219,2.01989 23.88392,-2.33225 216.32114,2.95334 C -82.860822,765.62229 -52.98839,744.11551 -42,719 c 7.704544,-17.48491 13.971283,-43.20889 22,-78 h 63 c 0,12.36252 0,12.36252 -0.953125,18.20312 C 31.756435,724.15231 23.535152,797.78908 12,867 h -553 v -32 c 119.57814,-101.15046 113.7866,-247.93975 113.9999,-387 h -105 v -74 h 105 l -0.10547,-24.73047 c 0.0507,-44.47573 -1.42994,-89.03932 3.33649,-133.33725 C -413.0761,120.24687 -368.93142,70.193166 -337,46 -229.09065,-38.405526 -48.722139,-9.7540158 0,0 Z" fill="#ce2000" transform="translate(714,70)" id="SvgjsPath1008" sodipodi:nodetypes="ccccccccccccccccccccccccccccccccc"></path>
  </svg>
  <style id="SvgjsStyle1007">@media (prefers-color-scheme: light) { :root { filter: none; } }
@media (prefers-color-scheme: dark) { :root { filter: none; } }
</style>
</svg><style>@media (prefers-color-scheme: light) { :root { filter: none; } }
@media (prefers-color-scheme: dark) { :root { filter: none; } }
</style></svg>